<svg xmlns="http://www.w3.org/2000/svg" width="1240" height="1240"><path d="M0 7.617c0 7.393.066 7.6 2.25 7.072a777.81 777.81 0 018.556-1.959c8.368-1.877 9.605-3.202 9.312-9.98L20 0H0v7.617M152.015.75c.026 1.27 1.367 2.721 4.145 4.487 1.463.93 4.591 5.195 6.951 9.477 6.876 12.475 9.703 14.535 11.926 8.689.502-1.322 1.404-2.403 2.003-2.403.599 0 3.311 2.28 6.025 5.067 6.627 6.803 6.5 8.419-1.315 16.668-9.692 10.232-11.649 11.934-20.75 18.048l-8.5 5.71-21.5.678c-27.02.852-46.622 2.382-55 4.294-9.414 2.149-15.799 4-16.618 4.82-.394.393-1.303.715-2.021.715-2.072 0-12.636 5.132-15.111 7.341-3.198 2.853-3.032 7.411.315 8.684 3.283 1.248 11.972 1.255 16.303.013 5.548-1.591 22.354-2.995 26.632-2.224 2.21.398 4 1.293 4 2.001 0 .705-3.585 3.847-7.966 6.983-4.381 3.136-8.651 6.928-9.49 8.426-1.391 2.484-1.371 2.878.224 4.472 1.937 1.937 10.04 4.001 19.232 4.898 5.287.516 7.069.166 15-2.946l9-3.532 1.728 2.192c.95 1.206 1.738 2.46 1.75 2.786.061 1.628-4.939 5.994-8.478 7.403-2.2.876-4.9 1.96-6 2.409-5.265 2.15-9.564 3.094-14.087 3.094-5.56 0-9.45 1.801-15.116 7-10.568 9.697-17.991 14.984-21.047 14.993-2.734.008-3.001-2.952-.75-8.339.825-1.974 1.5-5.101 1.5-6.947 0-3.089.599-3.738 7.481-8.097 4.114-2.606 7.783-5.228 8.153-5.827.833-1.348-7.65-.164-9.084 1.268-.523.522-1.648.952-2.5.955-.853.004-2.839.679-4.414 1.5-1.576.822-3.232 1.494-3.681 1.494-.448 0-3.659 1.307-7.135 2.905-3.476 1.598-8.776 3.626-11.777 4.508-5.337 1.567-10.408 4.478-16.65 9.558a982.415 982.415 0 01-5 4.043c-1.041.832-3.806 3.045-6.143 4.917L0 156.335V549h3.5c2.968 0 3.498.342 3.485 2.25-.009 1.237-.418 2.885-.91 3.662-.996 1.575-.203 2.57 4.399 5.521 1.636 1.049 3.436 2.28 4 2.736 11.537 9.327 12.51 9.858 23.526 12.844 9.105 2.467 13.171 4.788 21.124 12.056 4.472 4.087 8.423 7.656 8.779 7.931.357.275 2.2 2.525 4.097 5 4.136 5.398 4.863 5.965 7.667 5.985 1.191.008 2.316.371 2.5.805.183.435 2.51 2.339 5.17 4.232 4.555 3.242 5.321 3.445 13.159 3.499l8.321.057 8.511 5.664c5.379 3.58 9.645 7.312 11.592 10.141 1.694 2.463 3.08 4.773 3.08 5.135 0 1.132 6.117 13.934 6.915 14.472.416.28 1.244 1.932 1.838 3.67 1.212 3.544-.142 10.861-2.436 13.161-.724.727-1.317 1.738-1.317 2.247 0 .509-3.17 4.263-7.045 8.342-4.217 4.44-6.61 7.685-5.962 8.086 1.13.698 10.744-1.315 12.539-2.626 1.885-1.376 17.152-2.821 20.291-1.921 1.665.478 3.285.609 3.602.293.316-.316.575 1.3.575 3.591 0 4.326.914 5.181 2.935 2.746.902-1.088 3.095-1.32 9.322-.987 4.478.24 8.39.786 8.693 1.214.302.428 3.925 3.587 8.05 7.02l11.793 9.815c3.655 3.043 4.769 3.472 7.5 2.893 1.764-.374 4.332-.64 5.707-.591 28.277 1.007 28.063.978 36.5 5.035 7.617 3.663 17.208 7.022 20.048 7.022.725 0 2.983 2.031 5.017 4.514 2.034 2.483 4.877 4.805 6.317 5.16 1.44.355 4.297 1.699 6.348 2.986 2.052 1.287 4.607 2.34 5.678 2.34 1.071 0 2.794 1.077 3.83 2.394 1.035 1.316 4.218 3.654 7.072 5.196 4.672 2.523 5.19 3.139 5.19 6.172 0 1.853.414 4.142.919 5.087 1.015 1.896-.624 9.908-3.426 16.75l-1.678 4.1-13.566.65c-7.461.358-17.121.651-21.466.651-5.013 0-7.675.366-7.283 1 .383.62-1.778 1.064-5.691 1.168-3.47.092-8.559.258-11.309.369-52.194 2.102-65.162 2.774-66 3.42-.55.425-10 1.07-21 1.434-39.585 1.311-65.937 2.697-66.464 3.495-.295.448-8.861 1.103-19.036 1.457-43.562 1.515-53 2.016-53 2.813 0 .464-3.937.85-8.75.858-4.812.007-9.763.285-11 .616l-2.25.603.007 148.134C.014 1086.481.055 1089.673 2.033 1098c1.111 4.675 2.629 9.85 3.373 11.5.745 1.65 1.909 6.037 2.587 9.75.679 3.713 1.569 6.75 1.979 6.75.41 0 1.322 3.375 2.028 7.5s1.608 7.5 2.005 7.5c.398 0 1.545 4.05 2.55 9s2.135 9 2.512 9c.377 0 1.473 4.059 2.437 9.02.964 4.961 2.104 9.238 2.534 9.503.43.266 1.341 3.616 2.025 7.444.685 3.829 1.556 6.768 1.937 6.533.381-.235 1.359 3.043 2.174 7.286l1.481 7.714-3.066 2.5c-5.742 4.681-20.087 18.495-20.769 20-.374.825-.711 3.638-.75 6.25L7 1240h502v-3.599c0-7.604-2.887-10.768-11.923-13.062l-3.423-.87 4.599-4.484c2.53-2.467 4.906-5.722 5.281-7.235.376-1.513 1.084-2.75 1.574-2.75.491 0 .892-1.8.892-4s-.34-4-.756-4-1.376-1.402-2.135-3.116c-.932-2.105-2.795-3.742-5.744-5.047-2.401-1.062-4.365-2.484-4.365-3.161s1.35-2.708 3-4.515c1.65-1.806 3-3.894 3-4.639 0-.746.51-1.525 1.133-1.733.675-.225 1.113-2.667 1.083-6.036-.045-5.008-.417-6.017-3.231-8.768-1.75-1.71-4.262-3.52-5.583-4.022-2.362-.898-3.497-4.963-1.386-4.963.559 0 1.797-1.687 2.75-3.75.954-2.062 2.136-4.041 2.627-4.397.491-.356.893-3.105.893-6.107 0-4.248-.476-5.936-2.143-7.603-1.179-1.179-2.143-2.54-2.143-3.024 0-1.91-9.629-3.119-24.845-3.119h-15.959l-1.098-3.149c-.604-1.732-1.098-3.982-1.098-5 0-1.018-.377-1.851-.838-1.851-.461 0-1.434-4.5-2.162-10s-1.635-10-2.016-10-1.508-5.625-2.504-12.5-2.114-12.5-2.484-12.5c-.37 0-1.266-4.483-1.991-9.962-.725-5.479-1.613-9.781-1.972-9.558-.359.222-1.503-5.42-2.541-12.538-1.039-7.118-2.197-12.942-2.575-12.942-.378 0-1.007-2.362-1.399-5.25-.392-2.888-.917-6.15-1.166-7.25-.248-1.1-.713-3.913-1.032-6.25-.319-2.337-.915-4.25-1.324-4.25-.409 0-1.33-4.275-2.048-9.5-.717-5.225-1.599-9.5-1.961-9.5-.361 0-1.471-5.625-2.467-12.5s-2.121-12.5-2.5-12.5-1.504-6.075-2.502-13.5c-.997-7.425-2.13-13.5-2.518-13.5-.387 0-1.288-4.725-2-10.5s-1.608-10.5-1.989-10.5c-.382 0-1.504-5.513-2.494-12.25-.99-6.738-2.129-12.475-2.532-12.75-.403-.275-.984-2.525-1.291-5-1.075-8.668-2.004-13.504-2.687-14-.379-.275-1.478-6.125-2.443-13-.966-6.875-2.09-12.725-2.5-13-.41-.275-1.558-3.538-2.553-7.25-.994-3.712-2.135-6.75-2.534-6.75-.4 0-.986-1.296-1.303-2.879-.317-1.584-1.215-3.519-1.995-4.299-.781-.781-2.211-2.951-3.179-4.822s-2.376-4.019-3.13-4.773c-.753-.753-1.37-1.729-1.37-2.167 0-.438-2.023-2.82-4.495-5.292l-4.495-4.495 2.674-1.887c1.47-1.037 3.738-2.898 5.04-4.136 1.302-1.237 2.786-2.25 3.298-2.25.513 0 1.669-1.125 2.57-2.5.901-1.375 2.161-2.5 2.8-2.5.639 0 2.597-1.237 4.351-2.75 1.753-1.513 4.392-3.65 5.863-4.75s3.676-3.012 4.899-4.25c1.223-1.237 2.731-2.25 3.351-2.25.62 0 1.689-.9 2.376-2 .687-1.1 1.703-2.001 2.259-2.002.555-.002 2.584-1.354 4.509-3.005 1.925-1.652 4.288-3.256 5.25-3.565.962-.31 1.75-.971 1.75-1.47s1.374-1.617 3.053-2.486c3.293-1.703 5.431-3.421 9.607-7.722 1.469-1.513 3.046-2.75 3.505-2.75.459 0 1.735-.787 2.835-1.75 1.1-.962 2.866-2.503 3.924-3.424 1.059-.921 2.971-2.23 4.25-2.909 1.279-.679 2.914-2.063 3.633-3.076.718-1.012 1.94-1.841 2.715-1.841.774 0 1.889-.9 2.478-2 .589-1.1 1.714-2 2.5-2s1.911-.9 2.5-2 1.704-2 2.478-2c.775 0 1.997-.795 2.715-1.767.719-.972 2.645-2.624 4.281-3.67 3.252-2.08 4.701-3.187 7.544-5.76 1.032-.933 3.229-2.397 4.884-3.252l3.008-1.556-1.678 2.924c-.923 1.608-2.028 2.707-2.455 2.443-.427-.264-.833-.003-.902.579-.228 1.934-.437 2.543-1.562 4.559-1.24 2.223-1.272 2.362-1.413 6.25l-.099 2.75-.748-2.5c-.614-2.055-.884-1.476-1.516 3.255-.882 6.603.173 19.042 1.544 18.195.807-.499 1.318.782 1.074 2.691-.158 1.234 3.519 10.852 3.975 10.396.253-.253 1.326 1.773 2.385 4.502 1.059 2.728 2.3 4.961 2.757 4.961.458 0 1.298 1.337 1.868 2.971.569 1.634 1.558 2.871 2.198 2.75.639-.122 1.064.298.944.933-.12.635.443 1.702 1.25 2.373.807.67 1.468 1.73 1.468 2.355s.9 1.699 2 2.386 2 1.664 2 2.171c0 .506 4.5 5.44 10 10.963 5.5 5.523 10 9.78 10 9.458 0-.321 2.068 1.514 4.595 4.077 2.527 2.563 6.233 5.539 8.235 6.612 2.002 1.073 3.197 1.97 2.655 1.993-.542.023.401.81 2.094 1.75 2.906 1.612 4.183 2.575 8.276 6.241.941.843 3.384 2.327 5.428 3.297 2.044.97 3.717 2.168 3.717 2.662 0 .495 1.237 1.489 2.75 2.21 2.025.966 2.833 2.167 3.063 4.555.173 1.784.718 3.243 1.212 3.243s1.383 1.8 1.975 4c.592 2.2 1.438 4 1.879 4 .441 0 1.408 2.527 2.149 5.616.741 3.089 1.852 6.127 2.47 6.75.617.624 1.99 4.172 3.05 7.884 1.06 3.712 2.209 6.75 2.553 6.75.344 0 1.199 2.7 1.899 6s1.59 6 1.976 6c.387 0 1.307 3.199 2.045 7.11.738 3.91 2.047 7.82 2.91 8.69 1.26 1.268 1.519 3.626 1.316 11.962-.14 5.71-.655 11.137-1.146 12.06-.491.923-1.703 12.478-2.693 25.678-.991 13.2-2.104 24.225-2.474 24.5-.371.275-1.204 10.4-1.852 22.5-.649 12.1-1.592 23.575-2.097 25.5-.951 3.625-2.52 35.3-3.641 73.5-.417 14.209-1.035 22.253-1.745 22.713-.718.466-1.222 7.66-1.453 20.75l-.355 20.037 2.605.125c2.778.133 3.263.23 5.604 1.115 1.956.739 27.392 2.601 46.789 3.426 8.408.357 15.522 1.029 15.809 1.492.841 1.362 20.402 1.051 20.402-.325 0-.641-.284-.882-.631-.535-.348.347-1.473.182-2.5-.368-1.632-.873-1.869-2.256-1.869-10.882 0-5.435-.392-10.031-.872-10.215-.479-.183-1.189-13.394-1.578-29.358-.621-25.489-1.087-34.783-3.109-61.975-.246-3.3-1.174-19.05-2.063-35-.889-15.95-1.948-29.225-2.354-29.5-.406-.275-1.035-6.125-1.399-13-1.187-22.432-2.706-40.46-3.581-42.5-.471-1.1-1.341-7.954-1.933-15.231-1.041-12.806-.519-18.269 1.747-18.269.5 0 1.718-3.487 2.708-7.75.99-4.262 2.113-7.975 2.495-8.25.383-.275 1.57-3.994 2.637-8.264 1.068-4.27 2.175-7.53 2.46-7.244.286.285 1.114-1.958 1.841-4.986.726-3.028 1.627-5.506 2.001-5.506.374 0 1.287-2.527 2.028-5.616.741-3.089 1.856-6.127 2.477-6.75.622-.624 1.761-3.272 2.531-5.884.77-2.612 1.752-4.75 2.182-4.75.43 0 .782-.697.782-1.548 0-.852 1.357-2.119 3.017-2.817 1.659-.698 2.768-1.517 2.464-1.821-.645-.645 5.687-3.807 7.67-3.829 1.129-.013 1.13-.155.004-.868-.995-.631-.678-1.02 1.22-1.496 1.411-.354 3.708-1.876 5.105-3.383 1.396-1.506 2.985-2.738 3.529-2.738.545 0 .879-.339.741-.753-.138-.415 1.325-1.54 3.25-2.5 1.925-.961 3.361-2.197 3.191-2.747-.17-.55.726-1.244 1.992-1.543 1.266-.299 2.795-1.534 3.398-2.744.604-1.211 1.331-1.968 1.616-1.683.285.285 1.087-.168 1.783-1.006s1.885-1.524 2.642-1.524c.758 0 1.269-.337 1.136-.75s.542-1.863 1.5-3.223c1.128-1.601 1.766-1.953 1.81-1 .04.881.504.569 1.152-.777.597-1.238 1.703-2.25 2.458-2.25.754 0 1.79-1.013 2.301-2.25.511-1.237 2.288-3.55 3.948-5.139 1.66-1.59 2.779-3.277 2.487-3.75-.293-.474.121-.861.92-.861 1.342 0 2.811-2.115 3.125-4.5.073-.55.694-.881 1.381-.735.687.146 1.91-1.317 2.718-3.25s1.816-3.515 2.24-3.515c1.043 0 4.529-5.992 3.509-6.032-.444-.017-.111-.58.74-1.25.85-.67 2.181-2.793 2.957-4.718.777-1.925 1.94-4.042 2.586-4.704.646-.662 1.756-4.127 2.466-7.701.71-3.574 1.663-6.268 2.118-5.988.454.281.794-3.678.756-8.798-.047-6.132-.364-8.626-.93-7.309-.837 1.948-.861 1.944-.93-.135-.115-3.488-3.285-12.35-4.213-11.777-.471.292-.857.032-.857-.577 0-.608-1.191-2.21-2.646-3.559-2.946-2.73-2.024-3.31 1.423-.895 1.223.856 2.224 1.193 2.224.75.001-.444 1.066.43 2.367 1.943 1.3 1.512 2.827 2.75 3.391 2.75.565 0 1.286.675 1.603 1.5.316.825 1.239 1.5 2.05 1.5.811 0 2.063.839 2.781 1.865.719 1.025 3.1 2.825 5.292 4 2.192 1.174 3.542 2.153 3 2.175-.542.022.252.711 1.765 1.532 1.512.821 2.75 1.897 2.75 2.393 0 .495.787 1.153 1.75 1.463.962.309 3.325 1.913 5.25 3.565 1.925 1.651 3.954 3.003 4.509 3.005.556.001 1.572.902 2.259 2.002.687 1.1 1.756 2 2.376 2 .62 0 2.149 1.013 3.398 2.25s3.718 3.375 5.486 4.75c1.769 1.375 3.723 2.98 4.344 3.567.62.586 2.478 1.925 4.128 2.976 1.65 1.05 3.36 2.482 3.8 3.183.44.701 1.442 1.274 2.227 1.274.785 0 2.164 1.125 3.065 2.5.901 1.375 2.239 2.5 2.973 2.5.735 0 1.695.573 2.135 1.274.44.701 2.067 2.081 3.616 3.066 3.544 2.256 6.519 4.66 8.549 6.91.869.962 2.144 1.75 2.834 1.75s1.992 1.125 2.893 2.5c.901 1.375 2.149 2.501 2.773 2.501.624.001 2.33 1.013 3.79 2.25s4.09 3.374 5.844 4.749c1.753 1.375 4.159 3.457 5.345 4.626l2.156 2.127.271-4.377c1.137-18.38-.05-25.058-6.24-35.088-2.492-4.038-4.531-7.599-4.531-7.914 0-.314-.618-1.99-1.374-3.723-.756-1.733-2.192-6.076-3.192-9.651-3.095-11.069-10.557-21.984-24.788-36.258-8.488-8.514-8.092-7.35-5.871-17.242.494-2.2 1.93-6.025 3.192-8.5 1.907-3.739 2.37-6.53 2.741-16.5.588-15.802-1.26-21.99-9.297-31.144-5.013-5.71-5.966-6.356-9.373-6.356-2.242 0-4.331-.648-5.109-1.585-.931-1.123-2.208-1.401-4.372-.953-9.432 1.952-9.548 1.939-13.137-1.539-1.881-1.824-3.433-3.79-3.449-4.369-.032-1.139-5.57-7.554-6.522-7.554-.318 0-5.837 3.08-12.264 6.845-61.666 36.121-102.927 51.147-141.185 51.416-40.435.284-76.746-14.108-141.025-55.895L445 593.73v-4.725c0-3.5-.698-5.735-2.691-8.615-19.562-28.273-28.718-46.009-41.733-80.842-4.717-12.623-8.576-23.775-8.576-24.781 0-1.006.64-2.075 1.422-2.375 1.7-.653 5.578 1.244 5.578 2.728 0 1.151 10.641 28.52 17.255 44.38 5.801 13.911 13.891 29.374 20.927 40l5.96 9-.5-11c-.276-6.05-1.234-22.475-2.129-36.5l-1.627-25.5-4.072-3.484c-2.24-1.917-7.64-7.76-12.002-12.986-13.572-16.26-22.171-37.097-29.265-70.917-1.429-6.813-2.813-12.735-3.077-13.161-.263-.426-1.181-4.481-2.041-9.011-1.295-6.83-1.336-8.462-.24-9.559 1.838-1.838 5.737-.603 6.278 1.987.244 1.172 2.087 10.681 4.095 21.131 2.008 10.45 5.209 24.175 7.112 30.5 5.918 19.66 19.328 42.293 31.741 53.569 6.607 6.001 7.827 6.667 18.085 9.865 35.884 11.19 82.152 22.848 105 26.458 22.507 3.556 35.652 4.4 59.5 3.817 41.812-1.021 68.786-6.828 135.5-29.168 17.05-5.71 31.785-10.69 32.745-11.066 1.564-.614 1.677-.185 1.088 4.109l-.657 4.795 5.233-5.779c2.878-3.178 9.175-11.063 13.992-17.522 15.744-21.108 20.845-38.384 24.087-81.578 1.15-15.325 2.134-18.435 5.434-17.168 1.798.69 1.973 8.077.645 27.168-2.915 41.898-15.215 69.687-45.782 103.435-4.56 5.035-3.993 1.521-6.786 42.065-.815 11.825-1.655 23.413-1.868 25.75-.212 2.337-.047 4.25.367 4.25 1.317 0 10.598-14.197 14.938-22.85 4.531-9.036 12.442-28.264 17.546-42.65 4.729-13.325 6.669-16.949 9.272-17.32 1.414-.201 2.246-1.012 2.246-2.191 0-1.029.391-2.112.868-2.408.478-.295 1.159-2.727 1.514-5.404.484-3.645 1.208-5.157 2.882-6.016 4.837-2.481 12.736-9.279 12.736-10.962 0-.346.879-1.544 1.953-2.664 4.832-5.036 5.925-6.556 7.146-9.934.717-1.98 1.62-3.601 2.009-3.601.388 0 1.497-2.587 2.463-5.75.966-3.162 2.138-6.252 2.604-6.866 3.023-3.982 3.319-35.152.398-41.825a166.507 166.507 0 01-2.532-6.199c-1.641-4.321-9.945-12.341-14.342-13.853-1.994-.685-3.77-1.103-3.946-.927-.727.728.529-20.162 1.268-21.08.443-.55 1.301-4.6 1.907-9 1.103-8.002 2.666-14.119 4.089-16 .416-.55 1.072-2.913 1.458-5.25.385-2.337 1.062-4.25 1.504-4.25.443 0 1.099-1.237 1.459-2.75.786-3.303 6.763-22.603 7.153-23.1.654-.832 7.876 2.299 12.538 5.437 2.79 1.877 5.229 3.413 5.421 3.413.193 0 2.327 1.334 4.743 2.965 6.509 4.393 8.355 4.851 20.68 5.136l11.261.26 1.298-3.775c.713-2.077 2.129-4.745 3.146-5.931 3.432-4.001 5.095-8.127 5.808-14.405.391-3.438.92-6.25 1.177-6.25.256 0 1.508 1.239 2.782 2.752 1.374 1.633 4.704 3.55 8.185 4.712 3.229 1.078 6.095 2.203 6.37 2.5.275.298 2.397 1.828 4.716 3.401 3.316 2.249 5.664 2.958 11 3.32 3.731.253 7.684.83 8.784 1.282 8.992 3.694 11.348 4.033 28.033 4.039 10.204.003 18.561.48 20.967 1.196 2.416.72 11.16 1.212 22.087 1.245 17.708.052 18.601-.068 25.371-3.396 4.689-2.304 15.974-23.977 18.512-35.551.965-4.4 2.154-8.781 2.642-9.736 1.614-3.157.971-10.419-1.298-14.669l-2.185-4.095-16.065-.044c-8.835-.024-17.932-.405-20.215-.847-2.392-.463-6.57-.366-9.857.23-6.259 1.134-26.533-.341-28.758-2.092-.679-.534-2.359-1.247-3.734-1.583-1.375-.337-3.85-1.794-5.5-3.239-1.65-1.444-4.886-3.988-7.192-5.653-2.306-1.666-4.549-3.758-4.985-4.65-.436-.892-.832-9.497-.879-19.122l-.086-17.5-4.929.078c-3.871.061-6.298.908-11.309 3.944-7.202 4.365-10.67 4.73-16.707 1.76-4.389-2.16-7.089-1.976-7.791.532-2.465 8.796-1.23 12.429 6.808 20.031 5.777 5.464 5.789 5.405-1.68 8.11-2.438.882-2.75 1.5-2.75 5.438 0 6.915-.55 7.607-6.049 7.607-4.722 0-4.94-.137-9.393-5.924-2.507-3.258-4.558-6.192-4.558-6.52 0-.328-1.053-2.274-2.34-4.326-1.287-2.051-2.643-4.958-3.014-6.458-.37-1.5-3.34-5.579-6.6-9.064-5.359-5.729-5.985-6.858-6.528-11.772-1.939-17.57-4.056-21.281-12.817-22.464-5.629-.76-8.305-1.84-10.802-4.358-.88-.888-3.354-2.964-5.498-4.614s-5.924-4.854-8.4-7.12c-9.552-8.744-27.183-19.192-33.908-20.094-6.025-.808-6.924 1.293-4.159 9.727 2.072 6.32 3.145 7.799 12.57 17.328 5.668 5.729 11.585 11.079 13.15 11.887 1.565.809 4.196 2.174 5.846 3.034 1.65.861 4.798 2.391 6.995 3.401 5.447 2.504 23.027 20.215 21.54 21.702-.798.798-2.301.46-5.497-1.235-2.419-1.284-4.84-2.062-5.378-1.729-.539.333-1.558 3.867-2.266 7.852-1.163 6.554-1.759 7.749-6.235 12.497-2.722 2.887-5.334 5.25-5.804 5.25-1.883 0-.65-3.229 3.141-8.23 2.197-2.898 3.997-5.881 4-6.627.002-.746-2.133-3.491-4.746-6.099-2.612-2.609-6.135-6.273-7.828-8.144-1.693-1.87-5.18-5.348-7.75-7.73-2.57-2.381-4.672-4.914-4.672-5.627 0-.714-.722-1.897-1.604-2.629-1.462-1.213-3.606-5.263-3.812-7.2-.046-.433-.584-1.108-1.194-1.5-.611-.393-1.86-2.177-2.776-3.964-.916-1.787-2.073-3.25-2.572-3.25-.499 0-1.176-.848-1.505-1.884-.329-1.035-1.822-3.206-3.317-4.823a490.443 490.443 0 01-5.757-6.366c-4.067-4.589-8.079-7.656-13.257-10.134-4.094-1.959-4.355-1.972-5.594-.278-1.205 1.648-.763 7.874.869 12.258.371.995.013 1.027-1.637.144-1.234-.661-3.777-.863-6.123-.488-3.341.534-4.655.196-7.858-2.024-5.415-3.752-6.863-2.342-6.863 6.682 0 9.02-1.045 9.675-12.684 7.943-4.574-.68-8.316-1.587-8.316-2.015 0-.428-2.025-1.287-4.5-1.911-2.475-.623-4.5-1.487-4.5-1.921 0-.433-2.25-1.597-5-2.586-2.75-.989-5-2.119-5-2.511 0-.392-1.575-1.331-3.5-2.086-1.925-.755-3.5-1.753-3.5-2.218 0-.465-.788-1.138-1.75-1.497-1.654-.617-13.51-9.667-17.676-13.493-1.06-.973-2.747-2.03-3.75-2.348-1.003-.318-1.824-.977-1.824-1.464 0-.488-1.687-1.67-3.75-2.629-2.062-.959-4.11-2.33-4.55-3.047-.44-.717-1.466-1.304-2.281-1.304-.815 0-1.741-.675-2.057-1.5-.317-.825-.923-1.5-1.347-1.5-1.155 0-7.111-2.809-10.515-4.959-1.65-1.042-3.9-2.014-5-2.159-1.1-.146 2.27-.516 7.49-.823 12.908-.76 13.177-2.29 1.441-8.195-13.866-6.977-12.873-9.109 4.616-9.913 7.262-.334 12.423-1.021 13.152-1.75.661-.661 2.714-1.201 4.563-1.201 6.152 0 13.154-3.013 17.068-7.344 2.018-2.234 6.174-6.605 9.234-9.714 5.081-5.161 6.021-5.696 10.833-6.158 6.957-.669 9.376-3.078 10.075-10.034.491-4.879.794-5.38 4.287-7.087 2.068-1.01 7.647-2.624 12.398-3.586 7.994-1.618 8.954-2.081 12.85-6.205C799.165 24.883 803.87 21 805.468 21c.723 0 1.578 1.048 1.9 2.329.6 2.391 4.297 4.671 7.574 4.671 1.017 0 5.14-1.401 9.164-3.113 6.357-2.705 8.041-3.028 12.855-2.463 8.16.956 13.017 2.662 14.248 5.002 1.595 3.034 2.758 3.542 8.147 3.559 3.785.012 5.66-.598 8.5-2.766 7.431-5.67 10.895-6.437 24.144-5.344 10.801.891 12.317.541 17.546-4.049 4.465-3.921 7.402-9.878 7.432-15.076L917 0h-51.648l-4.871 3.463c-6.987 4.968-9.115 5.176-16.878 1.656C839.971 3.473 837 1.647 837 1.063 837 .314 735.642 0 494.5 0 306.125 0 152.007.337 152.015.75M1226.42 304.482c-1.268 1.934-1.54 4.308-1.235 10.75.343 7.241.915 9.347 4.603 16.958 2.317 4.78 4.212 9.371 4.212 10.203 0 .832.506 2.772 1.125 4.31a8360.75 8360.75 0 011.926 4.797c.442 1.1 1.25 3.35 1.797 5 .726 2.19 1.015-2.77 1.073-18.368l.079-21.368-3-3.417c-1.65-1.879-3-3.894-3-4.477 0-1.494-3.948-6.87-5.045-6.87-.5 0-1.641 1.117-2.535 2.482M1055 322.917c0 1.784 3.819 9.789 9.126 19.13 8.157 14.354 16.496 31.927 20.471 43.138 1.304 3.677 3.433 9.077 4.731 12s2.96 6.89 3.694 8.815c.734 1.925 2.797 6.425 4.584 10 1.787 3.575 4.203 8.975 5.367 12 2.196 5.701 4.457 11.048 6.134 14.5.534 1.1 2.249 3.462 3.812 5.248 1.562 1.786 4.457 6.511 6.432 10.5 2.74 5.53 6.07 9.787 14.028 17.93 5.739 5.873 12.869 13.973 15.842 18 14.589 19.757 18.862 27.921 22.409 42.822.982 4.125 2.459 8.573 3.281 9.885 1.444 2.302 1.799 2.364 10.177 1.769 4.775-.339 9.888-1.074 11.362-1.635 1.503-.571 11.657-1.019 23.115-1.019H1240v-22c0-12.1-.269-22-.598-22-.329 0-4.508 2.419-9.287 5.375-6.074 3.757-11.237 6.049-17.152 7.614-12.688 3.358-12.91 3.361-20.415.324-5.733-2.32-7.248-3.427-8.637-6.313-3.424-7.115-6.848-17.657-7.471-23-.887-7.604-2.971-14.533-5.396-17.939-1.124-1.578-2.044-3.111-2.044-3.406 0-.295-2.473-4.147-5.495-8.56-3.022-4.413-6.51-9.786-7.75-11.94-2.029-3.526-5.904-8.466-12.571-16.028-2.082-2.363-5.466-7.15-8.937-12.643-.689-1.091-3.979-7.609-7.311-14.484s-6.48-13.281-6.997-14.236c-.516-.955-.939-2.22-.939-2.81 0-1.907-8.042-17.519-10.316-20.024-1.212-1.337-3.77-4.455-5.684-6.93-1.914-2.475-4.503-5.625-5.755-7-1.252-1.375-3.089-4.14-4.083-6.145-2.526-5.095-6.115-9.134-10.975-12.35-4.106-2.717-4.216-2.732-8.871-1.2l-4.713 1.551-6.193-4.928c-6.329-5.036-7.41-5.621-7.41-4.011m-527.179 83.471c-4.224 4.439-4.821 5.816-4.821 11.123 0 3.019.378 5.489.839 5.489.462 0 1.335 1.086 1.94 2.413 1.318 2.894 4.265 3.989 8.564 3.183 5.398-1.013 7.629-9.591 4.757-18.292-1.094-3.317-1.93-4.22-4.352-4.704-4.384-.877-5.458-.755-6.927.788M698 406.345c0 .74-.9 2.16-2 3.155-1.6 1.448-2 3.08-2 8.155 0 3.563.438 6.345 1 6.345.55 0 1 .659 1 1.465 0 3.776 9.383 4.663 11.399 1.077.606-1.077 1.712-2.62 2.46-3.43.916-.992 1.219-3.158.93-6.642-.396-4.779-.917-5.909-4.61-10.005-1.696-1.879-8.179-1.975-8.179-.12m535.514 205.092c-6.598 9.991-16.163 23.335-18.178 25.362-.71.715-1.864 2.07-2.564 3.013-.699.942-4.637 4.633-8.75 8.201-8.77 7.609-14.464 13.652-18.247 19.369-5.983 9.042-20.763 28.714-25.651 34.143-1.993 2.213-5.199 6.016-7.124 8.45a493.99 493.99 0 01-6.032 7.476c-4.683 5.641-10.968 14.455-10.968 15.384 0 .506-.675 1.48-1.5 2.165s-1.5 2.288-1.5 3.563c0 1.276-.45 2.597-1 2.937-1.273.787-1.312 13.957-.048 16.264 2.231 4.071 3.924 9.237 5.486 16.736 1.821 8.742 3.104 13.862 5.012 20 .684 2.2 1.73 5.575 2.324 7.5.595 1.925 1.362 8.9 1.706 15.5.344 6.6 1.116 15.283 1.717 19.296.769 5.136.78 7.948.037 9.5-1.524 3.185-4.234 12.297-4.234 14.238 0 .911-.943 2.982-2.096 4.601-2.168 3.045-12.085 10.865-13.778 10.865-.528 0-1.109.337-1.293.75-.183.413-3.708 3.266-7.833 6.341-12.517 9.331-24.016 22.488-29.593 33.859-3.566 7.269-4.591 11.128-5.128 19.3-.414 6.314-.309 6.75 1.639 6.75 1.85 0 2.082.596 2.082 5.349 0 2.942.291 8.792.647 13l.646 7.651h-2.611c-2.739 0-5.844 2.367-17.548 13.371-3.434 3.229-12.134 18.476-12.134 21.265 0 .371-1.022 2.068-2.27 3.77-2.373 3.233-3.021 4.485-7.107 13.729-2.275 5.146-6.803 9.865-9.467 9.865-.569 0-4.1 3.184-7.846 7.077-3.745 3.892-9.022 9.179-11.725 11.75-2.704 2.57-10.129 9.771-16.5 16.001-12.519 12.242-14.832 13.866-19.904 13.972-1.826.039-4.976.93-7 1.981-2.025 1.052-5.333 2.454-7.351 3.116-2.019.663-4.138 1.77-4.711 2.459-.572.69-1.578 6.63-2.235 13.199-.657 6.57-1.473 12.17-1.814 12.445-.34.275-1.44 5.45-2.443 11.5-1.002 6.05-2.208 11.238-2.678 11.53-.47.291-1.163 2.459-1.541 4.817-.377 2.358-1.247 4.849-1.934 5.536-.686.686-1.832 3.857-2.545 7.046-.714 3.188-1.868 6.367-2.564 7.063-.696.697-1.583 2.528-1.97 4.071-.965 3.843-3.364 8.309-3.458 6.437-.042-.825-.734.638-1.537 3.25-.803 2.612-1.805 4.75-2.225 4.75-.421 0-1.6 2.025-2.621 4.5-1.02 2.475-2.183 4.5-2.583 4.5-.401 0-1.312 1.463-2.026 3.25-1.283 3.213-1.902 4.106-5.899 8.5-1.125 1.237-2.046 2.63-2.046 3.095 0 .465-.889 1.65-1.976 2.634-1.087.983-1.736 2.178-1.441 2.655.294.476.052.866-.539.866-.59 0-1.893 1.348-2.896 2.996-1.002 1.648-2.12 2.698-2.485 2.334-.365-.365-.663-.17-.663.433 0 1.325-21.65 23.237-22.959 23.237-.508 0-1.201.45-1.541 1-.411.665 58.656 1 176.441 1H1240l-.089-167.75c-.073-135.938-.327-166.897-1.338-163.25-.687 2.475-2.897 7.679-4.911 11.565-2.014 3.886-3.663 7.486-3.665 8-.001.514-1.63 3.635-3.62 6.934-3.832 6.355-4.57 9.462-6.73 28.334-1.269 11.08-2.098 13.111-5.374 13.152-.676.008-3.601 1.294-6.5 2.857-3.072 1.656-7.569 3.083-10.773 3.418-3.025.316-6.27.879-7.212 1.25-1.342.529-2.91-1.162-7.25-7.821l-5.538-8.496v-14.441c0-15.745.024-15.816 6.377-18.869 3.064-1.473 5.763-5.862 7.614-12.383 1.019-3.59.939-20.607-.194-41.48-.262-4.827-.059-5.519 1.703-5.803 3.494-.564 16.842-6.492 21.175-9.404 2.296-1.543 8.146-4.81 13-7.26 7.551-3.811 9.156-5.074 11.118-8.753l2.292-4.3-.292-121.563-.293-121.563-5.986 9.063M519.75 695.68c-1.513.249-2.75.873-2.75 1.386 0 .514-1.925.934-4.277.934-2.353 0-5.279.701-6.502 1.558-1.224.857-2.674 1.28-3.223.941-.549-.339-.998-.177-.998.36 0 .538-.246 1.619-.547 2.403-.666 1.736 4.723 7.738 6.948 7.738 1.05 0 1.599-.881 1.599-2.567 0-2.113-.355-2.455-2-1.933s-2 .18-2-1.933c0-1.412.45-2.567 1-2.567s1-.675 1-1.5c0-1.136 1.229-1.5 5.059-1.5 3.118 0 4.822.384 4.441 1-.349.565.47 1 1.882 1 1.375 0 2.821-.52 3.213-1.155.417-.674.277-.884-.336-.505-.577.357-1.29.022-1.583-.743-.602-1.568 4.149-2.928 5.824-1.667.55.414 2.125.419 3.5.011s2.275-.815 2-.904c-1.543-.5-9.902-.744-12.25-.357M692 696c0 .55.563 1.007 1.25 1.015.832.011.751.331-.245.961-1.305.825-1.277 1.109.215 2.235 1.419 1.07 1.753 3.329 1.96 13.289.203 9.69.594 12.459 2.035 14.385.982 1.312 1.785 2.999 1.785 3.75 0 .751.675 1.365 1.5 1.365s1.5-.45 1.5-1-.45-1-1-1c-.571 0-1-3-1-7 0-5.428-.324-7-1.441-7-2.078 0-2.828-1.708-1.644-3.742.918-1.575 1.027-1.524 1.055.492.048 3.557 2.022 2.617 2.1-1 .059-2.724.21-2.926.93-1.25.603 1.403.851.21.83-4-.022-4.449-.236-5.354-.83-3.5-.771 2.409-.804 2.386-.9-.627-.1-3.121-.09-3.127 4.65-2.808 2.612.176 3.731.088 2.485-.194-1.245-.283-2.032-.89-1.748-1.349.283-.46-.352-.609-1.412-.331-1.186.31-2.612-.295-3.705-1.572-1.31-1.53-1.984-1.753-2.559-.848-.613.966-.784.961-.796-.021-.008-.687-1.14-1.25-2.515-1.25-1.375 0-2.5.45-2.5 1m4.309 3.091c-1.126 1.126-.562 5.635.81 6.483.485.299.915-.27.958-1.265.042-.995.227-2.595.41-3.555.408-2.126-.797-3.044-2.178-1.663m10.691-.708c0 .211.9.619 2 .907 1.1.287 2 .115 2-.384 0-.498-.9-.906-2-.906s-2 .173-2 .383m-180.17 1.12c-.267.267-.287 1.838-.044 3.491.525 3.58 3.214 4.105 3.214.628 0-2.292-2.173-5.116-3.17-4.119m3.17.438c0 .518.375 1.173.833 1.456.459.283.834-.14.834-.941 0-.801-.375-1.456-.834-1.456-.458 0-.833.423-.833.941M690.158 703c0 1.375.227 1.938.504 1.25.278-.687.278-1.812 0-2.5-.277-.687-.504-.125-.504 1.25m32.426.359c.423 1.102.102 1.641-.977 1.641-1.961 0-2.081 1.362-.253 2.878 1.551 1.288 6.646 1.132 6.646-.203 0-.489-.675-.63-1.5-.313-1 .383-1.5-.041-1.5-1.271 0-1.015-.685-2.415-1.523-3.11-1.273-1.057-1.42-.995-.893.378m-230.229 3.391c-.252.962-.322 2.079-.156 2.481.536 1.3-4.241 3.967-5.939 3.315-1.358-.521-1.313-.262.256 1.472 1.589 1.755 1.67 2.249.493 2.977-.818.505-1.382 2.38-1.34 4.453.056 2.766-.296 3.52-1.548 3.316-1.211-.197-1.7.685-1.931 3.486-.171 2.063.123 3.75.653 3.75.529 0 2.363-1.687 4.074-3.75 1.711-2.062 3.051-3.3 2.979-2.75-.073.55-.08 2.462-.014 4.25.092 2.544.553 3.25 2.118 3.25 1.1 0 2-.45 2-1s-.45-1-1-1-1-2.502-1-5.559c0-3.176.399-5.312.931-4.984 2.012 1.244 2.158-1.725.175-3.573-2.496-2.325-2.593-3.69-.455-6.384 1.529-1.928 1.563-1.898.929.83-.601 2.584-.464 2.768 1.584 2.118 2.237-.71 4.836-2.793 4.836-3.877 0-.314-1.238-.603-2.75-.641-2.437-.063-2.522-.168-.75-.93 1.759-.756 1.662-.868-.809-.93-1.604-.04-2.544-.499-2.191-1.07.34-.55.324-1-.035-1s-.858.788-1.11 1.75m198.027 6.015c.367 7.955-.173 12.482-1.399 11.725-.433-.268-1.268.888-1.854 2.568-.961 2.758-.884 2.999.787 2.469 1.388-.441 2.011.045 2.487 1.942.875 3.489 3.606 3.32 3.565-.219-.017-1.513-.625-3.532-1.35-4.487-.919-1.21-1.186-3.94-.879-9 .242-3.997-.039-8.387-.626-9.763-.856-2.007-1-1.069-.731 4.765m27.697-3.015c-.063 2.61.315 3.25 1.921 3.25 1.333 0 2-.667 2-2 0-1.1-.638-2-1.417-2s-1.643-.562-1.921-1.25c-.277-.687-.54.212-.583 2m11.921-.778c0 1.356 1.777 2.198 2.425 1.149.31-.501-.109-1.169-.931-1.485-.822-.315-1.494-.164-1.494.336m-200.409 2.522c-.385 1.532-1.099 2.31-1.75 1.908-.66-.408-.898-.124-.596.709.278.764 1.053 1.262 1.724 1.108.67-.155 1.026.295.791 1-.234.704-1.064 1.281-1.843 1.281-.949 0-1.492 1.322-1.643 4-.195 3.434-.089 3.669.751 1.658.539-1.289.715-2.769.393-3.29-.349-.565.481-.681 2.049-.287l2.634.661-.686-5.371c-.821-6.429-.983-6.729-1.824-3.377m163.488-.911c.048 1.165.285 1.402.604.605.289-.722.253-1.585-.079-1.917-.332-.332-.568.258-.525 1.312M735 713.417c0 .779-.531 1.593-1.18 1.81-2.398.799.084 3.773 3.149 3.773 3.508 0 4.119-1.706.781-2.18-1.691-.241-2.172-.879-1.937-2.57.172-1.237.059-2.25-.25-2.25-.31 0-.563.638-.563 1.417m-235.393 1.165c-.895 2.333-.829 2.418 1.893 2.418 1.833 0 2.5-.533 2.5-2 0-2.432-3.493-2.765-4.393-.418M722 716c0 .55 1.8 1 4 1s4-.45 4-1-1.8-1-4-1-4 .45-4 1m-234 3.99c0 2.895.064 2.936 2 1.278 1.1-.942 2-2.287 2-2.99 0-.703-.9-1.278-2-1.278-1.554 0-2 .667-2 2.99m213.079-1.407c.048 1.165.285 1.402.604.605.289-.722.253-1.585-.079-1.917-.332-.332-.568.258-.525 1.312m-3.441.917c.317.825.753 1.5.969 1.5.216 0 .393-.675.393-1.5s-.436-1.5-.969-1.5c-.532 0-.709.675-.393 1.5m39.585 3.057c-1.626 1.138-2.223 1.219-2.223.3 0-1.006-.249-1.005-1.25.005-1.001 1.011-.902 1.459.5 2.25 2.141 1.208 2.313 3.888.25 3.888-1.647 0-1.811 1.431-.514 4.5.747 1.769.927 1.625 1.554-1.25.6-2.748 1.154-3.25 3.585-3.25 3.206 0 3.918 1.914.997 2.678-2.387.625-4.122 4.403-4.122 8.976 0 2.436-.395 3.409-1.25 3.082-.867-.332-1.25.706-1.25 3.385 0 4.826 1.876 5.637 2.113.914.096-1.905.672-3.63 1.281-3.833.608-.203 1.106-1.006 1.106-1.785 0-.779.45-1.417 1-1.417s1 .402 1 .893.725 1.171 1.611 1.511c1.177.452 1.448.191 1.004-.965-.334-.871-.135-2.564.444-3.761.95-1.968.916-2.01-.353-.444-1.743 2.154-2.706 1.299-2.706-2.401 0-2.061.49-2.833 1.799-2.833 1.467 0 1.724-.646 1.392-3.492-.224-1.921-.743-3.285-1.152-3.032-.409.253-1.598-.169-2.642-.937-1.776-1.307-1.785-1.439-.147-2.075 1.744-.676 2.45-2.464.973-2.464-.428 0-1.778.701-3 1.557M528 725.64c0 2.002-.647 4.139-1.438 4.75-1.849 1.427-.918 6.61 1.187 6.61.834 0 2.36.972 3.39 2.16 2.398 2.765 3.078 2.006 3.235-3.611.141-5.061.754-5.625 2.504-2.299.71 1.35.972 1.517.653.418-.292-1.007-.531-2.486-.531-3.285 0-1.127-.434-1.221-1.934-.418-2.541 1.36-3.066 1.306-3.066-.311 0-1.473-2.886-7.654-3.573-7.654-.235 0-.427 1.638-.427 3.64m-48.541-.573c-.363.586-.445 1.281-.183 1.543s.743-.218 1.069-1.067c.676-1.762.1-2.072-.886-.476M528 732c0 1.289.506 1.998 1.25 1.75.688-.229 1.25-1.017 1.25-1.75 0-.733-.562-1.521-1.25-1.75-.744-.248-1.25.461-1.25 1.75m155.636-.494c-.315.822-.164 1.494.336 1.494 1.356 0 2.198-1.777 1.149-2.425-.501-.31-1.169.109-1.485.931M477.252 736.5c.011 2.2.216 2.982.455 1.738.239-1.244.23-3.044-.02-4s-.446.062-.435 2.262m206.843-2.559c-.719.445-.901 1.061-.404 1.368.497.307 1.494.195 2.214-.25.719-.445.901-1.061.404-1.368-.497-.307-1.494-.195-2.214.25M491.357 735.5c.825.825 1.757 1.5 2.072 1.5.314 0 .571-.675.571-1.5 0-.851-.897-1.5-2.071-1.5-1.842 0-1.905.167-.572 1.5m190.226 1.366c-.431.697-.513 1.537-.183 1.867.895.895 1.871-.421 1.387-1.871-.338-1.016-.574-1.016-1.204.004M684 738c0 .55.45 1 1 1s1-.45 1-1-.45-1-1-1-1 .45-1 1m-145 1c-.901.582-1.025.975-.309.985.655.008 1.469-.435 1.809-.985.767-1.242.421-1.242-1.5 0m-57.789 1.538c-1.189 1.347-.84 1.877 1.039 1.58.413-.065.75.545.75 1.356 0 1.242 4.681 4.526 6.45 4.526 1.189 0 .466-6.227-.879-7.571-1.831-1.832-5.7-1.774-7.36.109M535 740c0 .55.477 1 1.059 1s.781-.45.441-1-.816-1-1.059-1-.441.45-.441 1m-49.921 2.583c.048 1.165.285 1.402.604.605.289-.722.253-1.585-.079-1.917-.332-.332-.568.258-.525 1.312M682.787 744c-.242 1.65-.069 3 .386 3s.827.712.827 1.583.534 1.406 1.188 1.188c1.854-.618 2.161-2.771.395-2.771-2.041 0-2.014-.964.07-2.488 1.774-1.298 1.082-3.512-1.099-3.512-.73 0-1.525 1.35-1.767 3M542 744c0 .55-.9 1-2 1-1.333 0-2 .667-2 2 0 1.367.667 2 2.107 2 1.493 0 1.934-.452 1.511-1.552-.341-.89-.173-1.291.393-.941.544.336.989-.316.989-1.448s-.225-2.059-.5-2.059-.5.45-.5 1m138 0c0 .55.45 1 1 1s1-.45 1-1-.45-1-1-1-1 .45-1 1m-135.684 5.25c.044 2.063.441 3.75.882 3.75s.802.48.802 1.067c0 .599-.846.799-1.927.456-1.744-.553-1.815-.371-.75 1.924 1.254 2.703 3.363 2.902 2.9.275-.414-2.353 1.533-3.046 2.657-.946.601 1.123.626 2.392.066 3.278-1.33 2.101-1.154 3.595.635 5.384 1.928 1.929 4.041 1.017 2.354-1.016-.639-.77-1.63-1.11-2.203-.756-.604.373-.742.159-.327-.511.392-.635 1.41-1.155 2.261-1.155.965 0 1.331-.565.972-1.5-.316-.825-.139-1.5.393-1.5.533 0 .969.702.969 1.559 0 2.125 1.629.968 2.312-1.642.304-1.163.287-1.849-.038-1.525-.324.325-1.194.089-1.932-.523-1.012-.84-1.346-.776-1.357.259-.01.892-.272.997-.75.299-.404-.59-1.523-1.363-2.485-1.719-.962-.355-1.75-1.559-1.75-2.677 0-1.117-.381-2.031-.847-2.031-.466 0-1.313-1.013-1.882-2.25-.923-2.005-1.027-1.842-.955 1.5M678 746.958c0 .492-.562 1.089-1.25 1.325-.687.237-.462.312.5.167.962-.144 1.75.172 1.75.703 0 .531.45.687 1 .347 1.453-.898 1.225-2.199-.5-2.862-.825-.316-1.5-.172-1.5.32m-196.005 3.55c-1.107 2.069-1.118 2.757-.062 3.762 1.045.995 1.154.776.572-1.145-.465-1.537-.355-2.15.312-1.738.567.351 1.238-.156 1.491-1.125.253-.969.547.038.653 2.238.266 5.531.724 7.585 1.97 8.831.759.759 1.069.448 1.069-1.072 0-1.178-.45-2.419-1-2.759-1.434-.886-1.236-6.249.25-6.78 1.535-.548.911-1.269-1.825-2.108-1.561-.478-2.41-.009-3.43 1.896m255.588-1.642c-.431.697-.513 1.537-.183 1.867.895.895 1.871-.421 1.387-1.871-.338-1.016-.574-1.016-1.204.004m-248.141 11.349c-.032 3.924.119 6.603.335 5.953.217-.649.875-.883 1.463-.52.599.371.78.194.411-.403-.361-.586-.368-1.818-.015-2.739.512-1.334.814-1.403 1.488-.34.523.826.851-.665.861-3.916.015-5.227-1.125-6.832-2.485-3.5-.669 1.639-.756 1.641-1.357.04-.354-.94-.669 1.501-.701 5.425m175.725-3.492c-2.444 2.631-1.795 4.839 1.097 3.729.99-.38 1.566-1.723 1.515-3.532-.046-1.606-.127-2.872-.181-2.814l-2.431 2.617M734 759c0 1.1.45 2 1 2s1-.9 1-2-.45-2-1-2-1 .9-1 2m-192.668 2.578c-.3.782-.278 2.122.051 2.977.526 1.373.877 1.343 3.004-.25 2.697-2.022 2.602-2.813-.433-3.607-1.277-.334-2.286.005-2.622.88m16.784-.328c-.064.962-.828 1.75-1.699 1.75-2.403 0-1.086 2.452 1.522 2.834 1.432.21 2.036-.066 1.62-.738-.408-.661-.067-.844.889-.478 1.031.396 1.552.02 1.552-1.118 0-1.079-.532-1.51-1.437-1.162-.835.32-1.625-.159-1.884-1.143-.408-1.546-.457-1.541-.563.055m99.384 1.372c-1.65.708-2.325 1.315-1.5 1.348 1.333.054 1.333.168 0 1.03-1.282.828-1.246.972.25.985.962.008 1.75-.66 1.75-1.485 0-.825.45-1.5 1-1.5s1 .477 1 1.059.45.781 1 .441 1-.141 1 .441.45 1.059 1 1.059c1.744 0 1.077-3.747-.75-4.216-.962-.247-3.1.13-4.75.838m-93 .378c.34.55 1.068 1 1.618 1s.722-.45.382-1c-.34-.55-1.068-1-1.618-1s-.722.45-.382 1m103.221.449c-1.656 1.223-1.662 1.36-.083 1.966 2.058.789 4.193-.992 2.812-2.348-.589-.578-1.626-.433-2.729.382m65.822-.518c-.317.512-.193 1.167.274 1.456.467.289.85-.13.85-.931 0-1.686-.316-1.833-1.124-.525M651 765.622c0 1.329.271 1.398 1.5.378.825-.685 1.5-1.415 1.5-1.622 0-.208-.675-.378-1.5-.378s-1.5.73-1.5 1.622m69-.482c0 .627-.78 1.71-1.734 2.407-1.509 1.104-1.249 1.255 2 1.162 3.846-.109 4.164-.426 3.127-3.127-.694-1.81-3.393-2.161-3.393-.442m7.638.36c-.316.825-.139 1.5.393 1.5.533 0 .976.788.984 1.75.011 1.29.355 1.094 1.311-.75.898-1.73.97-2.726.236-3.235-1.59-1.1-2.287-.925-2.924.735M495 766c0 .55 1.125 1 2.5 1s2.5.45 2.5 1 1.238 1.005 2.75 1.01c2.263.009 3.051.727 4.448 4.053.934 2.224 1.449 4.694 1.143 5.49-.305.796-.057 1.447.552 1.447.664 0 1.107-2.036 1.107-5.094 0-4.252-.33-5.18-2-5.616-1.107-.29-2-1.364-2-2.407 0-1.616-.78-1.883-5.5-1.883-3.025 0-5.5.45-5.5 1m152.686 1.488c-1.359.994-1.477 1.455-.489 1.911 1.026.473 1.037.725.053 1.184-1.924.898-1.482 3.209.75 3.917 2.553.81 2.616 3.5.082 3.5-2.73 0-5.082 1.04-5.082 2.247 0 1.981 3.531 3.69 7.691 3.721 4.33.033 6.47-1.309 3.751-2.352-.885-.34-1.285-.171-.935.395.336.544-.117.989-1.007.989-.981 0-1.333-.461-.895-1.17.493-.798.167-.957-1.025-.499-1.163.446-1.606.252-1.325-.58.232-.688 1.395-1.197 2.584-1.131 1.221.067 2.161-.476 2.161-1.25 0-.754-.702-1.37-1.559-1.37s-1.303-.414-.991-.919c.313-.506-.114-1.602-.948-2.437-1.785-1.785-.125-3.406 1.828-1.785.928.77 1.295.405 1.448-1.444.18-2.173-.037-2.347-1.764-1.422-1.568.839-1.858.764-1.423-.369.784-2.043-.811-2.667-2.905-1.136M731.5 768c-.34.55-.141 1 .441 1s1.059-.45 1.059-1-.198-1-.441-1-.719.45-1.059 1m-241.5.466c0 3.433 5.26 8.339 8.25 7.695.413-.088.75.691.75 1.732s.725 2.171 1.611 2.511c1.153.443 1.447.189 1.032-.893-.319-.831-.144-1.511.388-1.511 1.368 0 1.206-3.363-.231-4.8-1.294-1.294-5.221-1.69-4.455-.45.255.413-.586.813-1.867.89-1.735.104-2.198-.279-1.81-1.5.454-1.43.369-1.448-.66-.14-.989 1.255-1.104 1.143-.705-.685.284-1.306-.083-2.4-.914-2.719-.764-.293-1.389-.352-1.389-.13m85.667.201c-.956.955-.822 2.333.226 2.333.491 0 1.152-.675 1.469-1.5.585-1.524-.481-2.048-1.695-.833M726 770.559c0 .857.45 1.281 1 .941.55-.34 1-1.041 1-1.559s-.45-.941-1-.941-1 .702-1 1.559m-147.842 1.506c-1.289.517-2.751.686-3.25.378-.5-.309-.908.091-.908.889 0 .912 1.298 1.601 3.501 1.858 3.8.444 5.649-.636 4.814-2.812-.605-1.576-.941-1.601-4.157-.313M718 771.918c0 .505-.252 1.574-.559 2.376-.438 1.141.158 1.366 2.75 1.036 1.82-.231 4.065-.494 4.99-.583 1.998-.193 1.34-1.747-.74-1.747-.793 0-1.441-.45-1.441-1s-1.125-1-2.5-1-2.5.413-2.5.918m-133.493 1.071c-.35.566.051.734.941.393 1.732-.665 2.049-1.382.611-1.382-.518 0-1.216.445-1.552.989m50.075.836c1.087 1.013 2.638 1.884 3.447 1.936.809.052 2.484.404 3.721.783s2.243.299 2.235-.177c-.037-2.078-1.808-3.103-6.432-3.721-4.841-.648-4.905-.622-2.971 1.179m-45.082.894c-1.1.268-2.725 1.13-3.612 1.914-.886.785-3.011 1.604-4.722 1.821-6.553.829-5.843 3.295 1.001 3.476 1.466.038 2.911.633 3.21 1.32.299.688.449-.1.333-1.75-.17-2.428.219-3.061 2.04-3.32 2.109-.299 3.156 1.147 1.5 2.073-.413.23-.202.288.468.127.67-.161 1.472.118 1.782.62.667 1.08 3.5.184 3.5-1.107 0-.491-.873-.893-1.941-.893-2.553 0-3.535-1.721-2.023-3.544.665-.801 1.041-1.404.836-1.34-.204.064-1.272.335-2.372.603m-31.514 2.031c-.007.962-.285 2.763-.616 4-.444 1.654-.175 2.25 1.013 2.25.89 0 1.617-.675 1.617-1.5 0-.844.894-1.5 2.045-1.5 1.94 0 1.916-.13-.454-2.5-2.961-2.961-3.586-3.091-3.605-.75M597 777c0 .55.45 1 1 1s1-.45 1-1-.45-1-1-1-1 .45-1 1m32 0c1 .646 1.083.974.25.985-1.579.019-1.638 2.657-.08 3.62.794.491.958.171.511-.993-.364-.949-.247-1.462.261-1.148.506.313 1.202.111 1.548-.448.345-.559 1.753-1.016 3.128-1.016 1.412 0 2.231-.435 1.882-1-.34-.55-2.504-.993-4.809-.985-3.074.012-3.791.274-2.691.985m-56 1c0 .55.477 1 1.059 1s.781-.45.441-1-.816-1-1.059-1-.441.45-.441 1m64.2.2c-.66.66-1.2 2.11-1.2 3.222 0 1.973.054 1.968 2.211-.189 1.49-1.49 1.882-2.54 1.2-3.222-.681-.681-1.402-.62-2.211.189m82.8-.259c0 .518.45 1.219 1 1.559.55.34 1-.084 1-.941s-.45-1.559-1-1.559-1 .423-1 .941m-55.99 2.951c-1.695.472-2.094.938-1.25 1.46.682.421 1.24.459 1.24.085 0-.375.675-.122 1.5.563.825.685 1.5 1.64 1.5 2.122 0 1.368-4.777 1.031-5.293-.372-.253-.687-.81.1-1.238 1.75-.427 1.65-1.266 3.319-1.865 3.708-.766.499-.72 1.076.154 1.95.943.943 1.242.953 1.242.042 0-.66.723-1.2 1.607-1.2.997 0 1.395-.553 1.048-1.457-.45-1.172-.081-1.275 1.883-.528 1.786.678 2.378.599 2.203-.293-.133-.672.547-1.159 1.509-1.083 1.228.097 1.75-.592 1.75-2.309 0-1.377-.437-2.178-1-1.83-.55.34-1-.309-1-1.441 0-2.195-.144-2.237-3.99-1.167m-99.01.517c0 .19.675.906 1.5 1.591.865.718 1.5.815 1.5.229 0-.558-.675-1.274-1.5-1.591-.825-.316-1.5-.419-1.5-.229m92.986.841c-.007.688-.314 2.375-.68 3.75-.625 2.341-.561 2.393 1.013.821 1.828-1.825 2.295-5.821.681-5.821-.55 0-1.006.563-1.014 1.25m53.25.26c-.787.894-2.294 1.233-4 .9-3.399-.664-6.597 1.485-5.698 3.829.575 1.499.891 1.526 2.845.246 1.731-1.135 3.008-1.216 6.027-.382 2.669.737 4.147.74 4.877.01.73-.73.533-1.245-.65-1.699-1.115-.428-1.492-1.296-1.099-2.532.702-2.214-.507-2.409-2.302-.372m4.764.47c0 2.484 1.547 2.627 2.92.27.629-1.08 1.031-1.249 1.05-.441.016.72.51 1.012 1.097.65 1.418-.877.728-1.447-2.444-2.023-2.122-.384-2.623-.089-2.623 1.544M499 783c0 .55.45 1 1 1s1-.45 1-1-.45-1-1-1-1 .45-1 1m72 0c0 .55 1.237.993 2.75.985 2.143-.012 2.419-.23 1.25-.985-1.957-1.264-4-1.264-4 0m22 0c0 .55.45 1 1 1s1-.45 1-1-.45-1-1-1-1 .45-1 1m-89.343 2.174c.886.978 2 1.538 2.477 1.243.476-.294.866.118.866.917 0 1.486 2.866 3.133 3.81 2.19.288-.288-.057-.524-.766-.524-1.032 0-1.041-.299-.044-1.5 1.863-2.245-.367-4.32-4.516-4.202-3.229.091-3.339.204-1.827 1.876m56.504.57c-2.45 2.751-2.17 4.338.391 2.213 2.57-2.133 3.464.59 1.951 5.943-1.497 5.297-1.755 14.1-.413 14.1.501 0 .91-2.73.91-6.066s.387-6.823.861-7.75c.473-.926 1.107-3.289 1.407-5.251.413-2.692.128-3.829-1.161-4.634-1.359-.849-2.167-.553-3.946 1.445m20.108-2.051c.973.254 2.323.237 3-.037.677-.274-.119-.481-1.769-.461-1.65.02-2.204.244-1.231.498m48 0c.973.254 2.323.237 3-.037.677-.274-.119-.481-1.769-.461-1.65.02-2.204.244-1.231.498m11 0c.973.254 2.323.237 3-.037.677-.274-.119-.481-1.769-.461-1.65.02-2.204.244-1.231.498m69.339 5.033c-.889.888-.743 4.073.214 4.664.452.279 1.513-.301 2.359-1.288 1.391-1.625 1.371-1.901-.214-2.89-.963-.602-2.025-.821-2.359-.486m-149.795 2.879c-.565 2.744.266 6.464 1.301 5.824 1.136-.701 1.118-4.514-.028-6.324-.707-1.117-.961-1.017-1.273.5m108.41-.048c-1.223.856-2.223 2.071-2.223 2.7 0 .821.341.802 1.21-.067.946-.946 1.483-.717 2.464 1.05 1.187 2.138 1.257 2.057 1.291-1.49.019-2.062-.09-3.75-.242-3.75-.153 0-1.278.701-2.5 1.557m35.777.486l-2.5 1.944 2.25.623c1.394.386 2.28 1.434 2.329 2.757.043 1.173.297 1.596.565.939.267-.656 1.177-.928 2.022-.604 1.369.525 1.377.274.072-2.306-.805-1.593-1.638-3.436-1.851-4.097-.266-.826-1.165-.595-2.887.744m-193.667.501c0 .801.375 1.456.834 1.456.458 0 .833-.423.833-.941s-.375-1.173-.833-1.456c-.459-.283-.834.14-.834.941m5.167.456c.34.55.816 1 1.059 1s.441-.45.441-1-.477-1-1.059-1-.781.45-.441 1m147.045 1.845c.117 1.46.688 3.78 1.27 5.155.957 2.26 1.064 2.055 1.122-2.143.041-2.996-.41-4.825-1.271-5.155-.932-.358-1.269.287-1.121 2.143m24.122 1.822c-1.151 1.15-.729 2.333.833 2.333.825 0 1.5-.675 1.5-1.5 0-1.562-1.183-1.984-2.333-.833m4.943.155c-.662 1.071 2.982 4.178 4.901 4.178.819 0 1.489-.45 1.489-1s-.627-1-1.393-1-1.652-.675-1.969-1.5c-.626-1.632-2.218-1.988-3.028-.678m-176.797.861c.721.289 1.584.253 1.916-.079.332-.332-.258-.568-1.312-.525-1.165.048-1.402.285-.604.604m24.187-.112c0 .315.643 1.215 1.429 2 1.937 1.938 2.571 1.798 2.571-.571 0-1.333-.667-2-2-2-1.1 0-2 .257-2 .571m160.5.429c.34.55 1.041 1 1.559 1s.941-.45.941-1-.702-1-1.559-1-1.281.45-.941 1m-177.887.816c-.402.651-1.717 1.221-2.922 1.266-1.764.065-1.522.373 1.242 1.577 3.543 1.544 8.067.626 8.067-1.638 0-1.481-3.987-1.258-4.07.229-.039.688-.411.38-.828-.684-.52-1.329-.986-1.563-1.489-.75m144.03 3.77c-.345 2.523-.108 6.652.527 9.176 1.051 4.172 1.235 4.376 2.025 2.241.598-1.618.376-3.388-.714-5.684-1.432-3.017-1.435-3.547-.032-5.55 1.915-2.734 1.995-4.769.187-4.769-.863 0-1.595 1.687-1.993 4.586m38.706-3.401c.296.927.001 1.904-.655 2.171-.657.268-.406.522.556.565 2 .09 2.189-.769.64-2.921-.922-1.282-1-1.255-.541.185m-34.727 1.64c-.443 1.279-.539 2.592-.213 2.917 1.036 1.037 1.765-.492 1.385-2.906l-.368-2.336-.804 2.325m17.045.842c-.367.366-.652 1.829-.634 3.25l.034 2.583 1.961-2.354c1.079-1.295 1.712-2.757 1.408-3.25-.656-1.061-1.84-1.159-2.769-.229m11.445.977c-1.184 1.337-1.184 1.696 0 2.446 1.983 1.256 3.688 1.092 1.888-.181-1.129-.799-1.191-1.187-.25-1.568 1.344-.546 1.74-2.366.5-2.303-.413.021-1.375.743-2.138 1.606m-7.542.243c-.301.487.122 1.442.941 2.122.819.68 1.503 1.968 1.521 2.863.027 1.399.23 1.366 1.44-.231 1.109-1.465 1.157-2.261.228-3.75-1.251-2.003-3.217-2.481-4.13-1.004m-164.991.985c-.383.62-.376 1.648.016 2.283.443.715.275.883-.44.44-.635-.392-1.155-.236-1.155.346 0 1.339 2.677 1.39 3.495.067.337-.546.201-1.729-.302-2.628-.626-1.118-1.137-1.279-1.614-.508m5.421-.417c0 .25 1.145 1.6 2.545 3 3.223 3.222 3.455 3.192 3.455-.455 0-2.667-.333-3-3-3-1.65 0-3 .205-3 .455m131.068 2.495c-.052 2.63.21 3.172 1.099 2.283.864-.864.881-1.763.068-3.45-1.033-2.144-1.104-2.073-1.167 1.167m-1.873 1.55c.02 1.65.244 2.204.498 1.231.254-.973.237-2.323-.037-3-.274-.677-.481.119-.461 1.769m-130.112-1.217c.23.156 1.317.943 2.417 1.75 1.85 1.357 1.897 1.336.628-.283-.755-.962-1.843-1.75-2.417-1.75-.574 0-.857.127-.628.283m159.103 2.183c.378.407.305 1.743-.162 2.97-.502 1.321-.445 2.809.14 3.647.836 1.199.926 1.187.582-.074-.224-.82.212-2.11.968-2.866 1.605-1.604 1.267-3.329-.776-3.967-.791-.248-1.129-.117-.752.29m-129.936 1.242c-.687.252-1.25 1.149-1.25 1.992 0 1.044-.642 1.365-2.013 1.007-4.615-1.207-4.998 7.745-.459 10.719 3.029 1.985 3.134 1.975 3.742-.351.362-1.384.096-1.769-.947-1.369-1.156.444-1.387-.317-1.137-3.747.189-2.592.874-4.488 1.723-4.768.933-.307 1.213.048.828 1.051-.319.833-.053 2.043.591 2.69.645.646 1.172 2.572 1.172 4.279 0 1.707.573 3.298 1.273 3.537.886.302 1.213-.581 1.075-2.907-.108-1.838-.416-3.753-.683-4.255-.268-.503-.59-2.232-.717-3.841-.26-3.314-1.365-4.709-3.198-4.037m5.243 5.72c.267 3.972.995 7.255 1.707 7.696 1.72 1.063 2.425.101.983-1.341-.65-.65-1.228-2.78-1.283-4.733-.055-1.953-.498-4.675-.985-6.05-.606-1.709-.74-.309-.422 4.428m-28.129-1.934c-.316.822-.976 1.246-1.469.941-.492-.304-.895-.028-.895.613 0 .652.697.899 1.582.559.87-.334 2.332-.643 3.25-.686 1.049-.05 1.202-.267.412-.585-.691-.279-1.002-.918-.691-1.421.311-.503.074-.915-.525-.915-.6 0-1.349.672-1.664 1.494m9.063.94c-.618 2.465-2.427 3.632-2.427 1.566 0-.55-.352-1-.782-1-1.312 0-1.271 4.853.047 5.611.679.39.889.329.465-.137-.423-.466 1.068-1.689 3.313-2.718 2.778-1.274 3.978-2.408 3.758-3.552-.544-2.821-3.649-2.658-4.374.23m138.448-1.973c-.069.296-.237.989-.375 1.539-.138.55-.306 1.257-.375 1.571-.069.315-.832-.135-1.696-1-2.104-2.103-3.429-1.983-3.429.312 0 1.427.666 1.844 2.75 1.721 1.513-.089 3.491-.599 4.397-1.133 1.403-.828 1.44-1.161.25-2.26-.768-.71-1.453-1.047-1.522-.75m-25.25 1.337c-.271.439-.08 1.451.426 2.25.717 1.134.922.959.934-.798.015-2.313-.493-2.856-1.36-1.452m3.625 1.909c-.687 1.481-1.25 3.925-1.25 5.433 0 3.051-1.806 4.793-2.987 2.881-.598-.968-.926-.971-1.516-.016-.414.67-.309 1.506.233 1.857.543.351.899 1.313.793 2.138-.107.825.16 2.625.594 4l.788 2.5-.179-2.527c-.099-1.39.759-3.865 1.906-5.5 1.67-2.381 4.273-13.496 3.152-13.465-.156.004-.846 1.219-1.534 2.699M672 816c0 .55.702 1 1.559 1s1.281-.45.941-1c-.34-.55-1.041-1-1.559-1s-.941.45-.941 1m-135 1c0 .55.45 1 1 1s1-.45 1-1-.45-1-1-1-1 .45-1 1m147.441.555c-1.864 1.494-1.852 1.512.309.465 1.237-.6 2.25-1.3 2.25-1.555 0-.765-.519-.544-2.559 1.09m-20.863 1.99c-.349 1.392-.229 3.256.267 4.142.691 1.236 1.002.748 1.334-2.099.502-4.295-.663-5.781-1.601-2.043m4.422 1.58c0 3.163 1.953 3.841 3.991 1.386.68-.819 1.68-1.215 2.222-.879.583.36.549-.207-.082-1.386-.635-1.188-2.093-1.996-3.599-1.996-2.122 0-2.532.465-2.532 2.875m10.25-2.407c-.687.247-1.25 1.086-1.25 1.865 0 1.568 1.795 1.834 3.797.563 1.063-.674 1.063-1.008 0-1.85-.713-.565-1.859-.825-2.547-.578m-131.747 3.273c-.779 2.455.091 4.009 2.247 4.009 1.405 0 1.376-.187-.21-1.347-1.277-.934-1.489-1.566-.691-2.059 1.381-.854 1.528-2.594.218-2.594-.513 0-1.217.896-1.564 1.991M670 826c0 .55.45 1 1 1s1-.45 1-1-.45-1-1-1-1 .45-1 1m-116.311 1.918c.271 1.036 1.563 2.088 2.871 2.338 1.373.263 2.128.048 1.785-.508-.364-.588.324-.67 1.772-.211 2.137.678 2.231.587.965-.938-.771-.93-2.038-1.446-2.815-1.148-.776.298-2.235.101-3.241-.437-1.517-.812-1.746-.657-1.337.904M666 827c0 .55.45 1 1 1s1-.45 1-1-.45-1-1-1-1 .45-1 1m-103.925 1.25c.089.688.102 2.375.028 3.75-.104 1.95-.338 2.177-1.064 1.029-.512-.809-1.279-1.122-1.706-.696-.708.709 1.302 2.615 2.796 2.652.345.008 1.185-1.329 1.866-2.972.68-1.643 1.63-2.745 2.11-2.448.479.296.604-.159.277-1.013-.707-1.842-4.542-2.111-4.307-.302m100.656.67c-.435 1.663-.305 2.054.437 1.312.582-.582.86-1.647.62-2.369-.25-.749-.703-.295-1.057 1.057M824 847c0 .55.702 1 1.559 1s1.281-.45.941-1c-.34-.55-1.041-1-1.559-1s-.941.45-.941 1M657 957.5V978h42.84c23.562 0 50.337.296 59.5.657l16.66.657V937H657v20.5m125.015 92.25c.009.412.452 1.425.985 2.25.784 1.213.972 1.069.985-.75.008-1.237-.435-2.25-.985-2.25s-.993.338-.985.75m2.143 11.25c0 1.375.227 1.938.504 1.25.278-.687.278-1.812 0-2.5-.277-.687-.504-.125-.504 1.25m1.114 17c0 2.475.195 3.487.434 2.25.238-1.237.238-3.263 0-4.5-.239-1.237-.434-.225-.434 2.25m-2.689 20.866c-.431.697-.513 1.537-.183 1.867.895.895 1.871-.421 1.387-1.871-.338-1.016-.574-1.016-1.204.004m-1.504 6.717c.048 1.165.285 1.402.604.605.289-.722.253-1.585-.079-1.917-.332-.332-.568.258-.525 1.312M708 1166.167c0 .458.675.833 1.5.833s1.5-.375 1.5-.833c0-.459-.675-.834-1.5-.834s-1.5.375-1.5.834m-5.25 1.495c.688.278 1.813.278 2.5 0 .688-.277.125-.504-1.25-.504s-1.937.227-1.25.504m-18.481 2.031c.973.254 2.323.237 3-.037.677-.274-.119-.481-1.769-.461-1.65.02-2.204.244-1.231.498M668 1171c0 .55 1.323 1 2.941 1 1.618 0 3.219-.45 3.559-1 .368-.595-.823-1-2.941-1-1.957 0-3.559.45-3.559 1" fill="undefined" fill-rule="evenodd"/></svg>